# File created by Blade
# Date/Time:  Tue Apr 07 21:36:59 2015
# Frame Rate: 120.000 fps
#------------------------------------------------------
:FULLY-SPECIFIED
:DEGREES
343
root 6.077421 32.858811 10.890207 153.101884 -89.405674 -130.225973
Spine -1.280305 -6.522086 -0.568283
Head -8.530283 -2.711582 3.239557
LeftShoulder -4.662788 37.821253 17.198821
LeftArm 72.712031 23.684435 -54.892440
LeftForeArm 2.023214 -0.000000 10.560476
LeftHand 12.678949 -0.000000 10.737332
LeftHandThumb1 -26.253704 0.000000 33.147579
RightShoulder 2.430886 -2.087666 -16.980903
RightArm 19.488103 -24.093510 87.993648
RightForeArm -4.092245 -0.000000 14.102003
RightHand 6.226329 -0.000000 -2.146649
RightHandThumb1 -24.326973 -0.000000 -32.862282
LeftUpLeg -28.692667 -1.927744 0.617497
LeftLeg 3.898546 -0.000000 -0.000000
LeftFoot -2.766340 7.348085 -19.073736
LeftToeBase -4.594840 -0.000000 0.000000
RightUpLeg -40.231978 8.545425 -5.486569
RightLeg 20.728645 -0.000000 -0.000000
RightFoot -2.680225 -12.733728 8.105299
RightToeBase -7.583120 -0.000000 0.000000
344
root 6.081842 32.856006 10.868748 158.680497 -89.507465 -135.621033
Spine -1.327610 -6.506008 -0.680115
Head -8.828950 -2.701672 3.343063
LeftShoulder -4.682765 37.851074 17.221832
LeftArm 72.792244 23.774421 -54.641792
LeftForeArm 2.194339 -0.000000 10.699622
LeftHand 12.496816 -0.000000 10.540094
LeftHandThumb1 -26.253704 0.000000 33.147579
RightShoulder 2.444052 -2.088916 -16.994814
RightArm 19.504399 -24.680855 87.894330
RightForeArm -4.434199 -0.000000 13.761813
RightHand 6.107366 -0.000000 -1.780457
RightHandThumb1 -24.326973 -0.000000 -32.862282
LeftUpLeg -28.673253 -1.918830 0.553928
LeftLeg 3.458996 -0.000000 -0.000000
LeftFoot -2.628933 7.322388 -19.275677
LeftToeBase -4.414256 -0.000000 0.000000
RightUpLeg -40.261884 8.466090 -5.619882
RightLeg 20.457175 -0.000000 -0.000000
RightFoot -2.760632 -12.577963 8.237124
RightToeBase -7.243719 -0.000000 0.000000
345
root 6.088350 32.853451 10.845456 159.417179 -89.640379 -136.149020
Spine -1.401606 -6.541077 -0.741183
Head -9.134990 -2.689162 3.425990
LeftShoulder -4.700708 37.853003 17.238091
LeftArm 72.878502 23.875511 -54.398160
LeftForeArm 2.451049 -0.000000 10.798561
LeftHand 12.249210 -0.000000 10.182775
LeftHandThumb1 -26.253704 0.000000 33.147579
RightShoulder 2.447610 -2.125108 -17.010277
RightArm 19.569754 -25.481328 87.652642
RightForeArm -4.659164 0.000000 13.547642
RightHand 5.902024 -0.000000 -1.421805
RightHandThumb1 -24.326973 -0.000000 -32.862282
LeftUpLeg -28.729808 -1.925154 0.506303
LeftLeg 3.115784 -0.000000 -0.000000
LeftFoot -2.523030 7.276395 -19.515705
LeftToeBase -4.242474 -0.000000 0.000000
RightUpLeg -40.288778 8.290333 -5.678818
RightLeg 20.146009 -0.000000 -0.000000
RightFoot -2.584009 -12.508002 8.118090
RightToeBase -7.724904 -0.000000 0.000000
346
root 6.091998 32.851032 10.819314 160.903931 -89.768528 -137.489905
Spine -1.404112 -6.533257 -0.801248
Head -9.449710 -2.733721 3.469245
LeftShoulder -4.691967 37.891257 17.233990
LeftArm 73.013811 23.922160 -54.103355
LeftForeArm 2.674214 -0.000000 10.915451
LeftHand 12.007317 -0.000000 9.830373
LeftHandThumb1 -26.253704 0.000000 33.147579
RightShoulder 2.470274 -2.121692 -17.041904
RightArm 19.536178 -25.758263 87.676777
RightForeArm -5.215322 -0.000000 13.265868
RightHand 5.828909 -0.000000 -0.608552
RightHandThumb1 -24.326973 -0.000000 -32.862282
LeftUpLeg -28.747892 -1.873071 0.437034
LeftLeg 2.839427 -0.000000 -0.000000
LeftFoot -2.413661 7.164531 -19.654500
LeftToeBase -4.070994 -0.000000 0.000000
RightUpLeg -40.241889 8.079122 -5.694145
RightLeg 19.846386 -0.000000 -0.000000
RightFoot -2.511562 -12.244457 8.147698
RightToeBase -7.862073 -0.000000 0.000000
